<svg width="15" height="16" viewBox="0 0 15 16" fill="none" xmlns="http://www.w3.org/2000/svg">
<path d="M11.9913 15.3581C11.1203 16.2024 10.1693 16.0691 9.25387 15.6691C8.28511 15.2603 7.39633 15.2425 6.37424 15.6691C5.0944 16.2202 4.41893 16.0602 3.65458 15.3581C-0.68265 10.8875 -0.0427302 4.07948 4.88109 3.83063C6.08094 3.89284 6.91639 4.48832 7.61853 4.54165C8.66728 4.32834 9.6716 3.71509 10.7915 3.79508C12.1335 3.90173 13.1467 4.435 13.8133 5.39487C11.0403 7.05689 11.698 10.7098 14.2399 11.7319C13.7333 13.065 13.0756 14.3893 11.9824 15.367L11.9913 15.3581ZM7.52965 3.7773C7.39633 1.79533 9.00502 0.15998 10.8537 0C11.1114 2.29304 8.77394 3.9995 7.52965 3.7773Z" fill="black"/>
</svg>
