<svg width="16" height="16" viewBox="0 0 16 16" fill="none" xmlns="http://www.w3.org/2000/svg">
<path d="M15.8402 8.17753C15.8402 7.51976 15.7868 7.03976 15.6713 6.54199H8.16016V9.51085H12.569C12.4802 10.2486 12.0002 11.3598 10.9335 12.1064L10.9185 12.2058L13.2934 14.0456L13.4579 14.062C14.969 12.6664 15.8402 10.6131 15.8402 8.17753Z" fill="#4285F4"/>
<path d="M8.16036 15.9998C10.3203 15.9998 12.1336 15.2887 13.4581 14.062L10.9337 12.1064C10.2581 12.5775 9.35144 12.9064 8.16036 12.9064C6.04482 12.9064 4.24927 11.5109 3.60921 9.58203L3.5154 9.59L1.04597 11.5011L1.01367 11.5909C2.32921 14.2042 5.03144 15.9998 8.16036 15.9998Z" fill="#34A853"/>
<path d="M3.60901 9.5824C3.44013 9.08463 3.34239 8.55126 3.34239 8.00017C3.34239 7.44903 3.44013 6.91572 3.60013 6.41795L3.59565 6.31193L1.09528 4.37012L1.01347 4.40903C0.471271 5.49349 0.160156 6.71129 0.160156 8.00017C0.160156 9.28906 0.471271 10.5068 1.01347 11.5913L3.60901 9.5824Z" fill="#FBBC05"/>
<path d="M8.16036 3.09331C9.66256 3.09331 10.6759 3.7422 11.2537 4.28446L13.5114 2.08C12.1248 0.791115 10.3203 0 8.16036 0C5.03144 0 2.32921 1.79554 1.01367 4.40885L3.60033 6.41777C4.24927 4.48889 6.04482 3.09331 8.16036 3.09331Z" fill="#EB4335"/>
</svg>
