<svg width="36" height="36" viewBox="0 0 36 36" fill="none" xmlns="http://www.w3.org/2000/svg">
<circle cx="18" cy="18" r="18" fill="#16A085"/>
<path d="M11.1579 8H17.4737C18.3112 8 19.1144 8.33271 19.7067 8.92493C20.2989 9.51715 20.6316 10.3204 20.6316 11.1579V15.3684H19.5789V11.1579C19.5789 10.5995 19.3571 10.0641 18.9623 9.66925C18.5675 9.27444 18.032 9.05263 17.4737 9.05263H11.1579C10.5995 9.05263 10.0641 9.27444 9.66925 9.66925C9.27444 10.0641 9.05263 10.5995 9.05263 11.1579V24.8421C9.05263 25.4005 9.27444 25.9359 9.66925 26.3308C10.0641 26.7256 10.5995 26.9474 11.1579 26.9474H17.4737C18.032 26.9474 18.5675 26.7256 18.9623 26.3308C19.3571 25.9359 19.5789 25.4005 19.5789 24.8421V20.6316H20.6316V24.8421C20.6316 25.6796 20.2989 26.4829 19.7067 27.0751C19.1144 27.6673 18.3112 28 17.4737 28H11.1579C10.3204 28 9.51715 27.6673 8.92493 27.0751C8.33271 26.4829 8 25.6796 8 24.8421V11.1579C8 10.3204 8.33271 9.51715 8.92493 8.92493C9.51715 8.33271 10.3204 8 11.1579 8ZM14.3158 17.4737H26.1579L22.7368 14.0526L23.4358 13.2632L28.1726 18L23.4358 22.7368L22.7368 21.9474L26.1579 18.5263H14.3158V17.4737Z" fill="white"/>
</svg>
