<svg width="13" height="12" viewBox="0 0 13 12" fill="none" xmlns="http://www.w3.org/2000/svg">
<path d="M12 12C11.7167 12 11.4793 11.904 11.288 11.712C11.096 11.5207 11 11.2833 11 11V1C11 0.716667 11.096 0.479 11.288 0.287C11.4793 0.0956668 11.7167 0 12 0C12.2833 0 12.5207 0.0956668 12.712 0.287C12.904 0.479 13 0.716667 13 1V11C13 11.2833 12.904 11.5207 12.712 11.712C12.5207 11.904 12.2833 12 12 12ZM1.55 10.975C1.21667 11.2083 0.875 11.225 0.525 11.025C0.175 10.825 0 10.525 0 10.125V1.875C0 1.475 0.175 1.179 0.525 0.987C0.875 0.795667 1.21667 0.808333 1.55 1.025L7.75 5.175C8.05 5.375 8.2 5.65 8.2 6C8.2 6.35 8.05 6.625 7.75 6.825L1.55 10.975Z" fill="#2F3132"/>
</svg>
