<svg width="247" height="325" viewBox="0 0 247 325" fill="none" xmlns="http://www.w3.org/2000/svg">
<path d="M37.8452 271.548C34.9767 260.655 34.9767 248.774 32.5181 237.833C29.288 223.374 22.0567 210.192 15.2833 197.034C8.50986 183.876 1.97751 170.187 0.338393 155.463C-1.30072 140.738 2.77296 124.616 14.1503 115.121C21.3335 109.12 30.7102 106.276 38.0862 100.541C48.5717 92.3954 53.9471 79.3578 57.5869 66.5853C61.2267 53.8128 63.6853 40.486 70.2177 28.9185C80.2934 11.037 100.589 -1.01256 121.103 0.0959943C141.616 1.20455 161.02 16.1219 166.058 36.0277C167.914 43.3538 167.986 51.2342 171.409 57.982C176.326 67.6457 186.884 72.7547 196.526 77.7432C213.134 86.3465 229.501 97.0466 239.263 113C249.026 128.954 250.448 151.269 238.227 165.44C223.403 182.622 193.682 183.61 183.292 203.781C176.832 216.337 180.641 231.568 185.462 244.846C190.283 258.125 196.068 272.102 193.055 285.911C188.933 304.805 169.553 316.565 150.703 320.831C135.758 324.204 120.379 323.265 105.218 322.807C91.1405 322.397 77.1839 317.866 65.6137 309.817C54.6461 302.202 45.872 291.454 40.4726 279.26C39.412 276.753 38.5442 274.175 37.8452 271.548Z" fill="#F8EEED"/>
<path d="M116.643 315.239C111.774 315.239 106.977 314.733 102.325 313.721C85.211 309.961 70.7 299.044 63.5168 284.561C60.1421 277.741 58.3584 270.198 56.647 262.896L56.3095 261.474C51.4645 240.942 45.4142 219.252 34.2056 199.612C32.3977 196.455 30.4453 193.298 28.541 190.261C24.2263 183.345 19.7428 176.187 16.8502 168.403C11.9329 155.245 12.9453 142.232 19.5259 133.58C21.864 130.496 24.4673 128.76 27.2152 128.399C29.0713 128.158 31.1202 128.76 32.5665 129.99C33.7717 131.002 34.4707 132.351 34.5189 133.773L32.9521 133.845C32.9039 132.881 32.4218 131.942 31.5541 131.194C30.4211 130.255 28.8543 129.773 27.4081 129.965C24.5155 130.351 22.2015 132.665 20.7552 134.544C14.5121 142.762 13.5961 155.221 18.2965 167.849C21.1409 175.489 25.5761 182.574 29.8426 189.442C31.7469 192.502 33.7235 195.659 35.5554 198.841C46.8605 218.65 52.959 240.484 57.8281 261.113L58.1656 262.534C59.8529 269.74 61.6125 277.187 64.9149 283.862C71.9052 297.936 86.0064 308.515 102.663 312.203C117.776 315.528 134.698 313.239 150.318 305.72C157.115 302.442 162.249 298.852 165.986 294.683C170.879 289.236 173.916 282.296 176.254 276.199C180.28 265.643 183.389 254.533 186.378 243.785C190.837 227.784 195.441 211.227 203.251 196.238C205.541 191.852 208.12 187.538 210.603 183.369C215.111 175.85 219.787 168.042 222.728 159.68C225.5 151.823 225.644 145.341 223.138 140.449C221.523 137.292 218.148 134.809 214.508 134.135C211.736 133.604 209.157 134.231 207.325 135.846L206.288 134.665C208.506 132.689 211.543 131.966 214.821 132.568C218.895 133.339 222.728 136.135 224.56 139.726C227.259 145.027 227.163 151.896 224.246 160.186C221.257 168.693 216.533 176.549 212.001 184.164C209.518 188.309 206.939 192.599 204.673 196.961C196.96 211.806 192.38 228.266 187.921 244.195C184.908 254.991 181.798 266.149 177.749 276.753C175.362 282.97 172.253 290.08 167.191 295.719C163.286 300.033 158.007 303.768 151.017 307.118C139.856 312.492 128.021 315.239 116.643 315.239Z" fill="#6B5D6A"/>
<path d="M134.337 34.6301C135.614 33.1119 136.241 29.9549 136.41 28.027C136.578 25.9304 136.048 23.665 134.554 22.2191C133.951 21.6407 133.204 21.1828 132.649 20.5563C132.167 19.9779 131.83 19.279 131.372 18.6765C130.384 17.3752 128.769 16.5799 127.154 16.604C125.49 16.604 123.731 17.3752 122.236 16.6522C121.368 16.2184 120.79 15.3509 119.922 14.8689C119.03 14.3628 117.946 14.3628 116.957 14.5797C116.065 14.7725 115.174 15.134 114.282 15.0135C112.98 14.8207 112.064 13.6398 110.907 13.0133C108.4 11.6155 105.291 13.1097 104.447 15.7364C104.254 16.3389 104.302 16.9655 104.399 17.5921C104.664 19.0621 105.676 20.243 105.749 21.713C105.797 23.0867 104.929 24.4603 105.797 25.7617C106.496 26.7738 107.822 27.1112 108.4 28.3403C109.172 30.0031 108.521 32.172 109.099 33.9794C109.461 35.1121 109.678 36.7267 110.738 37.4497C112.209 38.4619 115.415 37.6184 117.174 37.4979C119.44 37.3292 121.73 37.1364 123.996 36.9436C127.009 36.6785 130.721 37.04 133.445 35.4495C133.806 35.1844 134.096 34.9193 134.337 34.6301Z" fill="#3B2645"/>
<path d="M111.197 33.57C111.197 33.57 109.1 31.0637 107.027 33.57C104.93 36.0763 108.497 40.872 111.197 41.0889C111.197 41.0889 111.51 34.6544 111.197 33.57Z" fill="#E0855C"/>
<path d="M145.063 73.9361C144.678 78.1052 143.328 81.9128 142.508 86.0097C142.34 86.7567 142.219 87.4797 142.099 88.1786C142.026 88.7088 141.906 89.4077 141.809 90.2993C141.785 90.468 141.761 90.6367 141.737 90.8295C141.641 91.4079 141.568 92.0345 141.496 92.661C141.472 92.7815 138.459 120.977 138.459 120.977C119.561 126.159 99.9878 120.977 99.9878 120.977C99.9878 120.977 99.9637 120.616 99.8673 119.917C99.554 116.712 98.5898 106.518 97.6256 95.0227C97.6256 94.9263 97.6015 94.854 97.6015 94.7817C97.6015 94.4444 97.5774 94.2516 97.5774 94.2516C97.1676 89.3836 96.7819 84.3228 96.4686 79.4547C95.89 70.996 95.5285 63.1879 95.6249 58.344C95.649 56.5606 99.7709 56.7534 102.639 56.3678C104.736 56.0786 106.882 55.8858 108.738 55.7895C110.473 55.6931 111.992 55.6449 112.932 55.6449C113.101 55.6208 113.269 55.6208 113.414 55.6208C113.8 55.6208 113.993 55.6208 113.993 55.6208C113.993 55.6208 114.234 52.8494 114.234 52.8253L114.884 46.0293C115.198 46.1016 115.511 46.1739 115.849 46.198C116.451 46.3185 117.054 46.3667 117.657 46.3908C118.452 46.4149 119.199 46.4149 119.898 46.3667C120.236 46.3426 120.597 46.2944 120.935 46.2462C121.128 46.2221 121.32 46.1739 121.513 46.1739C122.188 46.0534 122.863 45.9329 123.466 45.7401C123.851 45.6196 124.261 45.4992 124.623 45.3787C126.913 44.6316 128.624 43.5953 129.588 42.8965C129.709 42.8242 129.757 42.776 129.781 42.7519C129.95 42.6314 130.094 42.5109 130.215 42.4386C130.384 42.3181 130.456 42.2458 130.504 42.2217C130.432 42.5591 130.408 42.7037 130.384 42.8724C130.191 44.4629 129.95 46.4872 129.853 48.4874C129.757 49.8611 129.709 51.2347 129.661 52.4397C129.637 53.5241 129.227 55.3075 130.07 55.91C130.287 56.0786 130.649 56.175 131.035 56.2714C132.288 56.5365 134.144 56.5606 135.036 56.5365C135.446 56.5365 135.88 56.5124 136.289 56.4642C137.302 56.3919 138.338 56.2955 139.351 56.3678C140.773 56.4401 142.291 56.898 143.232 57.9825C144.027 58.8982 144.292 60.1273 144.533 61.3081C144.654 61.9588 144.726 62.6095 144.822 63.2843C145.329 66.8268 145.401 70.4176 145.063 73.9361Z" fill="#F5A784"/>
<path d="M130.528 42.2217C128.094 53.235 117.006 52.4879 114.402 51.0178L114.86 46.0293C124.02 47.9332 130.528 42.2217 130.528 42.2217Z" fill="#E0855C"/>
<path d="M111.679 26.3399C110.281 27.7858 110.185 31.0151 110.064 34.6059C109.703 45.4263 112.957 48.8243 118.501 49.4027C124.045 50.0052 129.83 47.8603 131.011 37.8351C131.614 32.8225 132.241 28.1714 130.409 26.0025C127.661 22.7732 115.922 21.9056 111.679 26.3399Z" fill="#F5A784"/>
<path d="M130.214 36.3655C130.214 36.3655 131.901 31.883 134.577 34.2688C137.253 36.6547 133.565 43.4265 129.467 42.9204C129.467 42.9204 128.913 37.9078 130.214 36.3655Z" fill="#F5A784"/>
<path d="M133.349 36.3174C132.747 36.4138 132.144 36.9681 131.734 37.3778C131.276 37.7874 130.77 38.3176 130.553 38.896C130.481 39.0888 130.746 39.1852 130.867 39.0647C131.204 38.7514 131.493 38.3658 131.807 38.0043C132.048 38.2453 132.265 38.5104 132.602 38.6309C132.843 38.7273 133.036 38.414 132.916 38.2212C132.771 37.9561 132.53 37.7633 132.265 37.5946C132.699 37.2573 133.205 37.0163 133.542 36.6307C133.663 36.4861 133.518 36.2692 133.349 36.3174Z" fill="#E0855C"/>
<path d="M114.813 34.3406C114.813 34.3406 113.872 34.6779 114.017 33.0392C114.138 31.5451 114.813 31.762 114.813 31.762C114.813 31.762 115.463 31.762 115.367 33.0633C115.271 34.3406 114.813 34.3406 114.813 34.3406Z" fill="#3B2645"/>
<path d="M124.285 34.3406C124.285 34.3406 123.345 34.6779 123.49 33.0392C123.61 31.5451 124.285 31.762 124.285 31.762C124.285 31.762 124.936 31.762 124.84 33.0633C124.743 34.3406 124.285 34.3406 124.285 34.3406Z" fill="#3B2645"/>
<path d="M119.055 38.7509C118.573 38.6786 117.488 38.9678 117.271 38.4617C117.078 38.028 117.849 35.5217 117.946 35.0879C118.332 33.5214 118.741 32.4852 119.031 30.6054C119.055 30.5331 118.91 30.485 118.862 30.5572C117.753 33.0395 117.343 36.1 116.692 38.7268C116.644 38.8714 116.765 39.016 116.909 39.016C117.608 39.016 118.283 39.1606 118.982 39.1606C119.248 39.1606 119.296 38.775 119.055 38.7509Z" fill="#E0855C"/>
<path d="M115.824 29.3046C115.149 28.9672 113.896 28.8708 113.414 29.5697C113.317 29.6902 113.438 29.8829 113.582 29.8829C113.92 29.8588 114.209 29.7142 114.546 29.6661C114.908 29.642 115.246 29.7142 115.583 29.8347C115.92 29.9311 116.137 29.4492 115.824 29.3046Z" fill="#3B2645"/>
<path d="M125.708 30.124C125.322 29.1842 123.659 29.0878 122.96 29.6661C122.791 29.8107 122.912 30.0517 123.081 30.0999C123.49 30.2204 123.924 30.0758 124.358 30.0999C124.744 30.124 125.033 30.2927 125.395 30.4132C125.563 30.5096 125.78 30.3168 125.708 30.124Z" fill="#3B2645"/>
<path d="M116.717 42.101C116.717 42.101 120.091 42.6071 122.647 41.0889C122.647 41.0889 121.755 43.306 119.682 43.8603C117.585 44.4386 116.717 42.101 116.717 42.101Z" fill="white"/>
<path d="M104.542 58.295C110.086 62.175 110.616 69.718 107.893 75.7186C106.061 79.7673 102.662 82.5628 100.613 86.3704C98.5881 90.154 96.1536 93.4074 93.4538 96.8053C87.4759 104.397 81.7631 111.265 79.5937 113.867C72.0248 122.929 56.164 134.785 50.4512 138.931C49.1495 139.894 48.3541 140.449 48.3541 140.449C48.3541 140.449 42.9065 137.557 44.3286 132.255C44.3286 132.255 66.1192 109.24 69.2287 104.517C73.0613 98.7333 75.6887 91.865 78.8946 85.6716C82.5827 78.5382 86.4394 71.4772 90.4408 64.5126C92.2727 61.3315 94.5868 57.1865 98.6363 56.584C100.251 56.343 101.89 56.8009 103.313 57.5721C103.771 57.7889 104.156 58.0299 104.542 58.295Z" fill="#F5A784"/>
<path d="M44.3534 132.304C45.4381 132.231 46.1612 132.304 46.1612 132.304C46.1612 132.304 51.3678 135.196 50.476 138.931C50.476 138.979 49.9216 139.437 49.0538 140.232C48.2824 140.955 47.2459 141.919 46.113 143.052C45.2935 143.895 42.4009 147.968 41.1957 147.582C40.9305 147.486 40.7377 147.293 40.5449 147.076C39.7976 146.281 39.0504 145.462 38.3272 144.666C37.0497 143.269 34.9767 140.931 36.5435 139.051C35.3624 139.774 32.6626 141.461 31.3369 140.666L30.8789 139.774C30.8789 139.774 34.8562 136.81 36.4953 135.34C39.0745 133.027 42.3527 132.424 44.3534 132.304Z" fill="#F5A784"/>
<path d="M111.122 95.2148C111.074 95.3353 111.05 95.4799 111.026 95.6004C110.978 95.7209 111.219 95.7209 111.171 95.6004C111.171 95.4799 111.146 95.3594 111.122 95.2148Z" fill="#D6BED3"/>
<path d="M197.731 324.277C195.176 324.566 192.573 324.759 189.969 324.879L41.5815 325C41.4368 324.976 41.2922 324.976 41.1476 324.976C40.9065 324.952 40.6173 324.928 40.3762 324.904C39.5085 324.831 38.6407 324.735 37.7729 324.663C34.8804 324.373 34.8804 320.469 37.7729 320.18C38.6407 320.084 39.5085 320.011 40.4003 319.939C40.6414 319.915 40.9065 319.891 41.1476 319.867C41.3163 319.843 41.4609 319.843 41.6297 319.843L189.969 319.963C192.573 320.084 195.152 320.301 197.755 320.566C200.118 320.831 200.093 324.012 197.731 324.277Z" fill="#8A8A8A"/>
<path d="M120.066 173.32C117.873 191.081 115.173 206.529 115.173 206.529C115.559 210.819 115.703 215.47 115.703 220.241C115.703 229.592 115.101 239.448 114.281 248.293C113.293 259.451 111.991 268.946 111.268 273.693C111.244 273.886 111.22 274.103 111.196 274.296C112.088 305.938 103.073 310.131 98.8784 303.311C94.6842 296.491 98.8784 276.007 98.8784 276.007C98.8543 275.814 98.8061 275.621 98.782 275.452C96.8295 265.066 95.7689 255.426 95.2145 246.799C93.7924 223.519 96.251 207.613 95.9618 204.697C90.8998 154.017 97.9625 126.207 97.9625 126.207C99.5293 121.194 101.554 117.555 103.772 115.169C108.906 109.627 115.077 111.024 118.958 117.82C119.343 118.471 119.729 119.194 120.066 119.965C121.489 123.194 122.429 127.315 122.718 132.183C123.345 142.546 121.874 158.716 120.066 173.32Z" fill="#F5A784"/>
<path d="M144.966 245.473C144.484 254.245 143.424 264.174 141.447 274.826C141.375 275.211 141.303 275.621 141.23 276.007C141.23 276.007 145.449 296.467 141.23 303.311C137.036 310.107 128.093 305.962 128.889 274.729C128.889 274.585 128.913 274.44 128.913 274.296C128.238 269.789 126.888 259.957 125.827 248.341C125.032 239.521 124.405 229.64 124.405 220.29C124.405 215.518 124.574 210.843 124.96 206.529C124.96 206.529 122.284 191.082 120.09 173.345C118.283 158.717 116.788 142.546 117.415 132.159C117.704 127.291 118.692 123.17 120.09 119.941C120.428 119.146 120.79 118.423 121.199 117.748C125.659 110.012 133.083 109.338 138.555 118.037C139.904 120.182 141.11 122.857 142.17 126.183C142.17 126.183 149.233 153.993 144.171 204.673C143.858 207.541 146.244 222.916 144.966 245.473Z" fill="#F5A784"/>
<path d="M43.7757 147.944C44.8845 148.908 46.2102 149.944 47.6565 149.679C49.0305 149.438 49.9705 147.824 49.5367 146.498C49.2956 145.775 48.7412 145.197 48.1868 144.667C44.547 141.076 40.8108 137.557 37.0023 134.111C36.2791 133.461 35.4596 132.762 34.4713 132.714C32.8563 132.641 30.9279 134.087 30.8797 135.774C30.8074 137.316 32.1813 137.919 33.2419 138.762C36.8576 141.702 40.2805 144.884 43.7757 147.944Z" fill="#3B2645"/>
<path d="M43.244 143.678C43.3886 143.51 43.5333 143.365 43.6297 143.148C43.8225 142.666 43.5815 142.136 43.3163 141.702C42.4486 140.256 40.5925 137.895 38.7847 137.678C37.6035 137.533 36.4465 138.256 35.7475 139.22C34.6628 140.714 34.4458 142.763 35.0726 144.498C35.5546 145.871 36.7358 147.727 38.1338 148.305C39.556 148.908 41.4603 148.329 42.0629 146.835C42.4245 145.944 42.3039 144.859 42.9066 144.112C42.9789 143.919 43.0994 143.799 43.244 143.678Z" fill="#F5A784"/>
<path d="M135.492 58.295C129.948 62.175 129.418 69.718 132.142 75.7186C133.974 79.7673 137.373 82.5628 139.421 86.3704C141.446 90.154 143.881 93.4074 146.581 96.8053C152.558 104.397 158.271 111.265 160.441 113.867C168.01 122.929 183.87 134.785 189.583 138.931C190.885 139.894 191.68 140.449 191.68 140.449C191.68 140.449 197.128 137.557 195.706 132.255C195.706 132.255 173.915 109.24 170.806 104.517C166.973 98.7333 164.346 91.865 161.14 85.6716C157.452 78.5382 153.595 71.4772 149.594 64.5126C147.762 61.3315 145.448 57.1865 141.398 56.584C139.783 56.343 138.144 56.8009 136.722 57.5721C136.264 57.7889 135.854 58.0299 135.492 58.295Z" fill="#F5A784"/>
<path d="M195.682 132.304C194.598 132.231 193.875 132.304 193.875 132.304C193.875 132.304 188.668 135.196 189.56 138.931C189.56 138.979 190.114 139.437 190.982 140.232C191.753 140.955 192.79 141.919 193.923 143.052C194.742 143.895 197.635 147.968 198.84 147.582C199.105 147.486 199.298 147.293 199.491 147.076C200.238 146.281 200.985 145.462 201.709 144.666C202.986 143.269 205.059 140.931 203.492 139.051C204.625 139.75 207.325 141.437 208.675 140.642L209.157 139.774C209.157 139.774 205.18 136.81 203.54 135.34C200.961 133.027 197.683 132.424 195.682 132.304Z" fill="#F5A784"/>
<path d="M196.237 147.944C195.128 148.908 193.802 149.944 192.356 149.679C190.982 149.438 190.042 147.824 190.476 146.498C190.717 145.775 191.271 145.197 191.826 144.667C195.466 141.076 199.202 137.557 203.01 134.111C203.733 133.461 204.553 132.762 205.541 132.714C207.156 132.641 209.085 134.087 209.133 135.774C209.205 137.316 207.831 137.919 206.771 138.762C203.155 141.702 199.732 144.884 196.237 147.944Z" fill="#3B2645"/>
<path d="M196.791 143.678C196.647 143.51 196.502 143.365 196.406 143.148C196.213 142.666 196.454 142.136 196.719 141.702C197.587 140.256 199.443 137.895 201.251 137.678C202.432 137.533 203.589 138.256 204.288 139.22C205.373 140.714 205.589 142.763 204.963 144.498C204.481 145.871 203.3 147.727 201.901 148.305C200.479 148.908 198.575 148.329 197.972 146.835C197.611 145.944 197.731 144.859 197.129 144.112C197.032 143.919 196.912 143.799 196.791 143.678Z" fill="#F5A784"/>
<path d="M145.328 230.025C145.352 230.796 145.352 231.592 145.352 232.411C145.352 234.026 145.328 235.688 145.28 237.399C145.256 238.05 145.256 238.701 145.208 239.351C145.159 241.328 145.063 243.352 144.966 245.473C138.796 247.256 132.36 248.075 125.827 248.34C125.586 245.641 125.032 238.46 125.008 237.664C124.887 236.002 124.67 231.399 124.622 230.772C124.453 227.254 124.381 223.735 124.381 220.265C124.381 215.783 124.55 211.396 124.863 207.324C124.887 207.035 124.911 206.769 124.936 206.504C124.936 206.504 122.236 191.057 120.066 173.32C119.825 175.2 119.584 177.079 119.343 178.887C117.318 194.166 115.173 206.504 115.173 206.504C115.559 210.794 115.703 215.445 115.703 220.217C115.703 223.856 115.607 227.567 115.462 231.254C115.438 231.881 114.956 239.93 114.884 240.701C114.715 243.255 114.498 245.81 114.281 248.244C110.931 248.099 107.58 247.858 104.278 247.593C101.675 247.376 98.3963 247.256 95.2145 246.774C95.0699 244.629 94.9735 242.533 94.9253 240.508C94.9012 240.002 94.8771 239.496 94.8771 238.99C94.8289 236.773 94.7565 234.652 94.7565 232.628V231.11C94.8289 216.506 96.1787 206.89 95.9618 204.697C90.8998 154.017 97.9625 126.206 97.9625 126.206C99.5293 121.194 101.554 117.555 103.772 115.169C105.821 115.338 107.821 116.181 109.822 116.784C112.787 117.627 115.848 117.844 118.958 117.82C119.705 117.82 120.428 117.796 121.175 117.772C123.851 117.675 126.526 117.458 129.178 117.386C129.781 117.362 130.383 117.362 130.962 117.362C133.493 117.362 136.072 117.555 138.531 118.085C139.88 120.23 141.086 122.905 142.146 126.23C142.146 126.23 144.581 135.774 145.569 153.872C146.268 166.693 146.244 183.779 144.147 204.745C143.93 206.842 145.208 216.024 145.328 230.025Z" fill="#3B2645"/>
<path d="M111.195 274.295C111.533 286.754 110.352 294.948 108.544 299.912C105.748 307.552 101.433 307.455 98.8779 303.31C98.2752 302.346 97.8414 301.069 97.5521 299.623C95.7925 291.044 98.8779 276.006 98.8779 276.006C98.8538 275.813 98.8055 275.62 98.7814 275.452C100.083 276.223 101.071 277.018 102.783 277.307C109.219 278.416 111.051 273.668 111.292 273.692C111.244 273.885 111.219 274.102 111.195 274.295Z" fill="#726F71"/>
<path d="M142.676 298.948C142.386 300.659 141.928 302.177 141.229 303.31C138.626 307.552 134.143 307.552 131.371 299.334C129.659 294.393 128.574 286.489 128.888 274.729C129.37 274.705 131.588 277.645 135.444 277.331C137.59 277.163 139.759 276.223 141.35 274.897C141.374 275.235 141.302 275.62 141.229 276.006C141.229 276.006 144.17 290.248 142.676 298.948Z" fill="#726F71"/>
<path d="M107.555 281.693C105.506 280.344 101.457 280.127 99.4803 281.717C99.2392 281.91 99.4321 282.32 99.7213 282.32C100.927 282.272 102.035 281.838 103.265 281.838C104.639 281.862 105.844 282.296 107.146 282.609C107.724 282.754 108.037 282.007 107.555 281.693Z" fill="#291B30"/>
<path d="M107.169 285.549C105.362 284.2 102.493 284.079 100.348 284.32C99.5524 284.417 99.5283 285.646 100.348 285.573C101.505 285.477 102.614 285.501 103.771 285.718C104.807 285.911 105.747 286.369 106.76 286.585C107.386 286.706 107.676 285.935 107.169 285.549Z" fill="#291B30"/>
<path d="M139.085 281.694C137.229 281.067 133.275 280.826 131.853 282.513C131.66 282.73 131.757 283.212 132.118 283.164C133.251 283.043 134.24 282.561 135.421 282.513C136.602 282.489 137.783 282.778 138.94 282.706C139.543 282.657 139.663 281.886 139.085 281.694Z" fill="#291B30"/>
<path d="M139.976 285.766C137.951 284.899 132.962 284.248 131.949 286.947C131.805 287.309 132.263 287.598 132.576 287.429C134.649 286.248 137.228 286.128 139.446 287.068C140.169 287.333 140.723 286.08 139.976 285.766Z" fill="#291B30"/>
<path d="M48.7157 55.4996C48.6916 55.3309 48.4264 55.3309 48.4023 55.4996C47.2212 63.7173 47.9202 72.4653 47.9202 80.7554C47.9202 89.6479 47.631 98.6128 48.1613 107.505C48.1854 108.036 48.9567 108.036 49.0049 107.505C49.5352 98.6128 49.246 89.6479 49.246 80.7554C49.1978 72.4894 49.8968 63.7173 48.7157 55.4996Z" fill="#E8CEE5"/>
<path d="M59.2494 58.2234C59.2494 57.5727 58.237 57.5727 58.237 58.2234C58.1888 66.1279 57.7067 74.1769 58.237 82.0573C58.2852 82.708 59.2012 82.708 59.2494 82.0573C59.7797 74.1769 59.2976 66.1279 59.2494 58.2234Z" fill="#E8CEE5"/>
<path d="M167.023 140.979C166.974 140.569 166.42 140.569 166.372 140.979C165.335 151.197 165.914 161.777 165.962 172.043C166.01 182.405 166.01 192.744 166.348 203.107C166.372 203.564 167.047 203.564 167.071 203.107C167.384 192.744 167.408 182.405 167.457 172.043C167.457 161.801 168.059 151.221 167.023 140.979Z" fill="#E8CEE5"/>
<path d="M185.678 80.3699C185.341 73.5498 185.413 66.4888 184.328 59.7411C184.256 59.3314 183.677 59.476 183.629 59.8375C183.123 67.1154 183.919 74.6343 184.232 81.9122C184.521 88.7563 184.449 95.7933 185.389 102.589C185.485 103.216 186.425 103.023 186.474 102.445C186.811 95.1426 186.04 87.6478 185.678 80.3699Z" fill="#E8CEE5"/>
<path d="M190.523 84.2018C190.499 83.8885 190.041 83.8885 190.017 84.2018C189.631 94.1065 189.077 104.011 189.872 113.94C189.921 114.47 190.644 114.47 190.692 113.94C191.463 104.035 190.909 94.1306 190.523 84.2018Z" fill="#E8CEE5"/>
<path d="M119.344 178.911C119.416 176.935 119.633 175.079 120.067 173.344C119.826 175.223 119.585 177.103 119.344 178.911Z" fill="#291B30"/>
<path d="M145.568 153.824C142.314 134.304 115.461 133.364 115.461 133.364C113.774 125.194 124.645 122.808 124.645 122.808L130.984 117.338C133.515 117.338 136.095 117.531 138.553 118.061C139.903 120.206 141.108 122.881 142.169 126.206C142.145 126.182 144.555 135.725 145.568 153.824Z" fill="#291B30"/>
<path d="M142.604 128.279C120.91 138.473 97.3359 129.123 97.3359 129.123C99.0474 124.255 97.7698 99.722 97.6493 95.0467C97.6493 94.9504 97.6252 94.8781 97.6252 94.8058C97.6252 94.4684 97.6011 94.2756 97.6011 94.2756C102.157 83.7202 102.663 63.3806 102.687 56.3919C104.736 56.1027 106.881 55.9099 108.737 55.8135C109.461 63.6457 112.016 83.672 119.199 82.7803C126.165 81.9128 129.805 64.0795 131.058 56.3196C132.312 56.6087 134.168 56.6087 135.06 56.5846C135.469 56.5846 135.903 56.5605 136.313 56.5124C135.686 67.1882 141.592 89.6245 141.785 90.3233C141.761 90.492 141.737 90.6607 141.713 90.8535C141.616 91.4319 141.544 92.0585 141.471 92.685C141.447 92.8055 141.447 92.9501 141.423 93.0947C140.073 106.638 142.604 128.279 142.604 128.279Z" fill="#16A085"/>
</svg>
